<svg width="100" height="100" viewBox="0 0 100 100" xmlns="http://www.w3.org/2000/svg">
  <!-- Party balloon with string -->
  <defs>
    <radialGradient id="balloonGradient1" cx="0.5" cy="0.5" r="0.5" fx="0.25" fy="0.25">
      <stop offset="0%" stop-color="#FF9EF9" />
      <stop offset="100%" stop-color="#FF4ECD" />
    </radialGradient>
    <radialGradient id="balloonGradient2" cx="0.5" cy="0.5" r="0.5" fx="0.25" fy="0.25">
      <stop offset="0%" stop-color="#9EECFF" />
      <stop offset="100%" stop-color="#4E9CFF" />
    </radialGradient>
    <radialGradient id="balloonGradient3" cx="0.5" cy="0.5" r="0.5" fx="0.25" fy="0.25">
      <stop offset="0%" stop-color="#FFEE9E" />
      <stop offset="100%" stop-color="#FFCE4E" />
    </radialGradient>
  </defs>
  
  <!-- Balloon 1 -->
  <g transform="translate(30, 30) scale(0.8)">
    <ellipse cx="30" cy="25" rx="20" ry="25" fill="url(#balloonGradient1)">
      <animate attributeName="transform" attributeType="XML" type="translate"
        values="0,0; 0,-5; 0,0" dur="3s" repeatCount="indefinite" />
    </ellipse>
    <path d="M30,50 Q28,60 26,70 Q25,75 30,75 Q35,75 34,70 Q32,60 30,50" fill="#888" opacity="0.7">
      <animate attributeName="d" 
        values="M30,50 Q28,60 26,70 Q25,75 30,75 Q35,75 34,70 Q32,60 30,50;
                M30,50 Q32,60 34,70 Q35,75 30,75 Q25,75 26,70 Q28,60 30,50;
                M30,50 Q28,60 26,70 Q25,75 30,75 Q35,75 34,70 Q32,60 30,50" 
        dur="5s" repeatCount="indefinite" />
    </path>
  </g>
  
  <!-- Balloon 2 -->
  <g transform="translate(60, 20) scale(0.7)">
    <ellipse cx="30" cy="25" rx="20" ry="25" fill="url(#balloonGradient2)">
      <animate attributeName="transform" attributeType="XML" type="translate"
        values="0,0; 0,-7; 0,0" dur="4s" repeatCount="indefinite" begin="0.5s" />
    </ellipse>
    <path d="M30,50 Q28,60 26,70 Q25,75 30,75 Q35,75 34,70 Q32,60 30,50" fill="#888" opacity="0.7">
      <animate attributeName="d" 
        values="M30,50 Q28,60 26,70 Q25,75 30,75 Q35,75 34,70 Q32,60 30,50;
                M30,50 Q32,60 34,70 Q35,75 30,75 Q25,75 26,70 Q28,60 30,50;
                M30,50 Q28,60 26,70 Q25,75 30,75 Q35,75 34,70 Q32,60 30,50" 
        dur="6s" repeatCount="indefinite" begin="0.5s" />
    </path>
  </g>
  
  <!-- Balloon 3 -->
  <g transform="translate(15, 15) scale(0.6)">
    <ellipse cx="30" cy="25" rx="20" ry="25" fill="url(#balloonGradient3)">
      <animate attributeName="transform" attributeType="XML" type="translate"
        values="0,0; 0,-6; 0,0" dur="3.5s" repeatCount="indefinite" begin="1s" />
    </ellipse>
    <path d="M30,50 Q28,60 26,70 Q25,75 30,75 Q35,75 34,70 Q32,60 30,50" fill="#888" opacity="0.7">
      <animate attributeName="d" 
        values="M30,50 Q28,60 26,70 Q25,75 30,75 Q35,75 34,70 Q32,60 30,50;
                M30,50 Q32,60 34,70 Q35,75 30,75 Q25,75 26,70 Q28,60 30,50;
                M30,50 Q28,60 26,70 Q25,75 30,75 Q35,75 34,70 Q32,60 30,50" 
        dur="5.5s" repeatCount="indefinite" begin="1s" />
    </path>
  </g>
</svg>